<svg xmlns="http://www.w3.org/2000/svg" viewBox="0 0 64 64" role="img" aria-label="Auto Rentanje">
  <rect width="64" height="64" rx="14" fill="#0a0c0f"/>
  <rect x="1.5" y="1.5" width="61" height="61" rx="12.5" fill="none" stroke="#e9b949" stroke-opacity=".35" stroke-width="3"/>
  <g fill="none" stroke="#e9b949" stroke-width="3.4" stroke-linecap="round" stroke-linejoin="round">
    <path d="M14 38h36M13 30l3.6-8.3A4 4 0 0 1 20.3 19h23.4a4 4 0 0 1 3.7 2.5L51 30v9a2 2 0 0 1-2 2h-2M13 30v9a2 2 0 0 0 2 2h2M13 30h38"/>
  </g>
  <circle cx="21.5" cy="40.5" r="3.4" fill="#0a0c0f" stroke="#e9b949" stroke-width="3"/>
  <circle cx="42.5" cy="40.5" r="3.4" fill="#0a0c0f" stroke="#e9b949" stroke-width="3"/>
</svg>
